<svg viewBox="0 0 55 55" xmlns="http://www.w3.org/2000/svg" fill-rule="evenodd" clip-rule="evenodd" stroke-linejoin="round" stroke-miterlimit="2"><g transform="translate(-434.738 -1146.55) scale(1.01775)"><path fill="none" d="M427.158 1126.56H481.199V1180.6009999999999H427.158z"/><clipPath id="a"><path d="M427.158 1126.56H481.199V1180.6009999999999H427.158z"/></clipPath><g clip-path="url(#a)"><g transform="translate(38.073 -158.578)"><clipPath id="b"><path d="M443.127 1290.54a5.4 5.4 0 0 0-1.584-3.82 5.38 5.38 0 0 0-3.822-1.59h-43.23c-1.433 0-2.808.57-3.822 1.59a5.4 5.4 0 0 0-1.584 3.82v43.23a5.4 5.4 0 0 0 1.584 3.82 5.374 5.374 0 0 0 3.822 1.58h43.23c1.433 0 2.808-.56 3.822-1.58a5.4 5.4 0 0 0 1.584-3.82v-43.23z"/></clipPath><g clip-path="url(#b)"><path fill="#1d3b68" transform="translate(1.813 -1.813)" d="M387.272 1286.95H441.313V1340.991H387.272z"/><path d="M392.736 1286.76c19.14-.44 26.639 7.24 28.297 8.94 4.853 4.97 8.002 7.82 9.749 25.56.685 6.96 6.256 13.54 12.212 23.28 6.121 10 16.652 28.19-4.11 38.76-9.692 4.94-27.232 7.18-42.416 6.2-26.936-1.74-37.559-12.03-38.162-12.52-10.962-8.94-17.976-22.59-17.976-37.81 0-2.62-.543-20.3 16.416-37.21 3.065-3.06 14.862-14.72 35.99-15.2zm.759 7.58c-23.012 2.17-45.165 19.97-45.165 44.83 0 12.46 5.624 23.66 14.462 31.14 8.012 6.77 22.676 10.72 36.748 11.84 18.244 1.47 35.011-1.68 41.877-6.3 12.684-8.54 3.821-20.91-3.866-30.22-8.991-10.88-14.54-16.33-15.376-29.56-.638-10.11-3.732-15.43-9.117-18.58-3.803-2.23-10.455-4.01-19.563-3.15z" fill="#2caaff"/><path d="M390.783 1275.6c17.223 1.82 31.555 9.31 38.116 15.65 9.842 9.53 13.775 9.07 15.045 25.1.737 9.27 3.686 11.11 7.395 25.19 8.822 33.47-5.186 43.31-7.487 45.25-11.078 9.36-33.82 14.32-52.002 13.7-44.632-1.5-63.5-34.69-63.5-61.32 0-12.61 3.766-29.06 20.178-46.78 14.914-16.09 29.077-18.18 42.255-16.79zm1.662 9.27c-21.258.05-33.03 11.39-37.035 15.42-17.851 18-17.094 36.65-17.094 38.88 0 17.2 8.48 30.24 16.64 37.58 2.328 2.09 13.05 12.93 40.693 14.59 11.32.68 36.63-.14 48.962-10.54 12.198-10.29 6.506-24.42-.27-36.71-4.583-8.31-10.842-17.02-11.283-22.56-1.502-18.93-7.108-23.12-12.47-28.15-6.423-6.02-18.226-8.54-28.143-8.51z" fill="#8149f1"/><path d="M393.288 1252.56c25.821 4.34 57.556 23.24 66.047 55.62.34 1.29 2.357 8.98 3.682 16.4.497 2.78 1.348 8.08 1.348 14.59 0 17-6.883 37.25-8.271 40.47-2.812 6.48-8.202 16.19-24.82 24.27-21.736 10.54-38.71 10.54-42.19 10.54-41.544 0-75.28-33.75-75.28-75.28 0-38.39 34.077-75.77 46.48-82.32 2.866-1.51 13.915-7.5 33.004-4.29zm-2.866 21c-17.31-2.24-29.342 2.75-41.936 15.59-23.881 24.36-22.33 48.64-22.33 50.02 0 29.36 21.582 62.18 64.995 63.36 15.367.44 48.898-3.96 59.481-22.65 5.071-8.95 5.445-24.3 2.394-38.89-2.685-12.85-5.8-16.65-6.702-25.01-1.755-16.31-4.542-15.57-18.142-27.66-4.035-3.6-19.35-12.37-37.76-14.76z" fill="#f254d2"/><path d="M393.551 1296.27c10.469-1.13 21.32 1.14 24.638 9.85 2.601 6.83 1.076 10.91 3.947 18.67 3.1 8.39 7.977 13.7 14 20.83 7.264 8.6 15.693 19.65 6.137 27.62-6.79 5.67-24.38 8.53-42.061 7.06-16.043-1.34-29.936-6.02-36.833-12.13-7.729-6.85-13.049-17.17-13.049-29 0-24.77 22.728-40.7 43.221-42.9zm-.527 7.82c-12.371 1.86-21.397 9.4-22.77 10.47-5.129 4.01-11.924 12.77-11.924 24.61 0 16.08 11.063 23.24 12.92 24.44 6.164 3.98 17.234 7.85 30.957 9.11 13.185 1.22 29.416-.1 35.014-6.29 5.593-6.19-.211-14.15-7.154-22.71-4.998-6.16-10.209-12.3-15.161-21.85-2.625-5.07-3.363-12.32-6.99-15.23-.304-.25-4.418-4.13-14.892-2.55z" fill="#00e33d"/><path d="M392.669 1306.08c13.275-2.11 15.801 4.68 17.919 9.22 3.394 7.27 2.863 7.55 7.434 14.16 3.88 5.62 6.369 8.58 10.305 13.55 6.978 8.81 11.757 16.04 6.721 21.75-7.396 8.38-29.93 6.27-32.568 6.02-4.599-.43-20.659-2.28-31.293-9.85-1.584-1.13-10.857-7.74-10.857-21.76 0-3.22.68-15.2 12.014-23.94 9.667-7.46 18.564-8.87 20.325-9.15zm-1.952 8.58c-9.835 1.44-22.977 10.8-22.377 24.52.731 16.7 22.141 22.27 34.118 23.29 9.952.85 18.318-.79 21.914-4.54 4.5-4.7.547-11.49-3.419-17.28-.35-.51-11.055-15.62-15.691-20.43-3.551-3.68-7.771-6.56-14.545-5.56z" fill="#ffed25"/><path d="M390.55 1316.94c7.169-.96 11.85 2.71 16.269 7.55 3.488 3.83 9.186 11.28 12.126 15.77 2.347 3.59 6.551 10.39 3.299 14.92-4.752 6.61-19.638 5.13-20.118 5.09-12.745-1.03-30.597-7.01-31.566-21.12-.813-11.83 10.474-20.94 19.99-22.21zm.896 9.25c-6.602.48-12.162 6.39-10.97 12.76 1.366 7.31 10.834 11.84 19.262 12.3 7.68.41 14.931-2.62 9.927-12.04-2.084-3.93-9.264-13.68-18.219-13.02z" fill="#ffa41b"/><path d="M391.981 1328.52c6.911-.4 12.94 6.17 15.12 10.53 3.523 7.05-1.363 10.21-8.146 9.89-6.877-.31-14.519-4.15-15.81-10.05-1.142-5.21 3.214-10.05 8.836-10.37z" fill="#f75e5e"/></g></g></g></g></svg>